<svg width="129" height="32" viewBox="0 0 129 32" fill="none" xmlns="http://www.w3.org/2000/svg">
<path d="M113.82 0.660023H111.1V31H113.82V19.26C113.82 13.94 117.01 11.57 120.43 11.57C123.54 11.57 125.68 13.55 125.68 18.29V31H128.4V17.52C128.4 12.4 125.6 9.17002 121.09 9.17002C117.28 9.17002 114.83 11.54 113.82 14.34H113.74C113.82 12.55 113.82 11.81 113.82 10.84V0.660023Z" fill="white"/>
<path d="M98.77 9.17002C92.21 9.17002 88.32 13.6 88.32 20.32C88.32 27.08 92.51 31.47 98.77 31.47C104.29 31.47 107.63 27.97 108.41 23.89L105.65 23.27C105.26 25.91 103.05 29.14 98.77 29.14C94.49 29.14 91.15 25.76 91.15 20.32C91.15 15.15 94.07 11.5 98.77 11.5C103.01 11.5 105.42 14.42 105.65 17.8L108.45 17.18C107.75 12.75 104.52 9.17002 98.77 9.17002Z" fill="white"/>
<path d="M55.33 12.04V25.99C55.33 29.25 57.04 31 60.34 31H65.12V28.59H60.73C58.94 28.59 58.05 27.74 58.05 25.87V12.04H64.93V9.63002H58.05V3.80003H55.33V9.63002H50.78V12.04H55.33Z" fill="white"/>
<path d="M48.03 0.660023H45.31V31.01H48.03V0.660023Z" fill="white"/>
<path d="M3.03 3.80003H0.0100021L10.11 31H13.02L23.12 3.80003H20.09L14.18 20.47C13.33 22.91 12.43 25.4 11.58 27.81H11.54C10.69 25.41 9.79 22.92 8.94 20.47L3.03 3.80003Z" fill="white"/>
<path fill-rule="evenodd" clip-rule="evenodd" d="M65.86 20.32C65.86 13.44 70.06 9.17002 76.12 9.17002C81.99 9.17002 86.11 13.17 86.11 19.35V21.14H68.78C68.94 25.84 71.77 29.14 76.2 29.14C79.5 29.14 82.07 27.31 82.96 24.44L85.76 25.06C84.63 28.83 80.98 31.47 76.2 31.47C69.98 31.47 65.86 27.04 65.86 20.32ZM76.2 11.49C80.55 11.49 83.19 14.56 83.23 18.8H68.82C69.13 14.72 71.85 11.49 76.2 11.49Z" fill="white"/>
<path fill-rule="evenodd" clip-rule="evenodd" d="M21.88 24.86C21.88 20.51 25.22 18.29 29.81 18.29H33.15C35.71 18.29 36.88 17.32 36.88 15.49C36.88 12.93 34.59 11.49 31.56 11.49C28.14 11.49 25.69 13.28 25.42 16.54L22.7 15.92C23.32 11.68 26.47 9.16002 31.56 9.16002C37 9.16002 39.6 12.04 39.6 16.08V27.12C39.6 28.17 40.03 28.6 41 28.6H41.85V31.01H40.06C38.16 31.01 36.99 29.88 36.99 28.02V25.92H36.91C35.67 29.65 32.64 31.48 29.02 31.48C24.94 31.48 21.87 29.11 21.87 24.87L21.88 24.86ZM36.87 21.17C36.87 26.69 33.26 29.14 29.53 29.14V29.13C26.15 29.13 24.75 27.12 24.75 24.86C24.75 22.6 26.11 20.62 29.88 20.62H32.09C34.69 20.62 36.13 19.81 36.79 18.29H36.87V21.17Z" fill="white"/>
</svg>
